<svg width="157" height="34" viewBox="0 0 157 34" fill="none" xmlns="http://www.w3.org/2000/svg">
<path d="M8.708 27.28C7.196 27.28 5.73067 27.0653 4.312 26.636C2.912 26.2067 1.80133 25.6373 0.98 24.928L2.24 22.1C3.04267 22.7347 4.02267 23.2573 5.18 23.668C6.356 24.06 7.532 24.256 8.708 24.256C10.164 24.256 11.2467 24.0227 11.956 23.556C12.684 23.0893 13.048 22.4733 13.048 21.708C13.048 21.148 12.8427 20.6907 12.432 20.336C12.04 19.9627 11.536 19.6733 10.92 19.468C10.304 19.2627 9.464 19.0293 8.4 18.768C6.90667 18.4133 5.69333 18.0587 4.76 17.704C3.84533 17.3493 3.052 16.7987 2.38 16.052C1.72667 15.2867 1.4 14.26 1.4 12.972C1.4 11.8893 1.68933 10.9093 2.268 10.032C2.86533 9.136 3.752 8.42667 4.928 7.904C6.12267 7.38133 7.57867 7.12 9.296 7.12C10.4907 7.12 11.6667 7.26933 12.824 7.568C13.9813 7.86667 14.98 8.296 15.82 8.856L14.672 11.684C13.8133 11.18 12.9173 10.7973 11.984 10.536C11.0507 10.2747 10.1453 10.144 9.268 10.144C7.83067 10.144 6.75733 10.3867 6.048 10.872C5.35733 11.3573 5.012 12.0013 5.012 12.804C5.012 13.364 5.208 13.8213 5.6 14.176C6.01067 14.5307 6.524 14.8107 7.14 15.016C7.756 15.2213 8.596 15.4547 9.66 15.716C11.116 16.052 12.3107 16.4067 13.244 16.78C14.1773 17.1347 14.9707 17.6853 15.624 18.432C16.296 19.1787 16.632 20.1867 16.632 21.456C16.632 22.5387 16.3333 23.5187 15.736 24.396C15.1573 25.2733 14.2707 25.9733 13.076 26.496C11.8813 27.0187 10.4253 27.28 8.708 27.28ZM28.8934 26.188C28.4827 26.524 27.9787 26.776 27.3814 26.944C26.8027 27.112 26.1867 27.196 25.5334 27.196C23.8907 27.196 22.6214 26.7667 21.7254 25.908C20.8294 25.0493 20.3814 23.7987 20.3814 22.156V14.96H17.9174V12.16H20.3814V8.744H23.8814V12.16H27.8854V14.96H23.8814V22.072C23.8814 22.8 24.0587 23.36 24.4134 23.752C24.768 24.1253 25.2814 24.312 25.9534 24.312C26.7374 24.312 27.3907 24.1067 27.9134 23.696L28.8934 26.188ZM38.0004 27.196C36.4884 27.196 35.1257 26.8693 33.9124 26.216C32.699 25.5627 31.747 24.6573 31.0564 23.5C30.3844 22.324 30.0484 20.9987 30.0484 19.524C30.0484 18.0493 30.3844 16.7333 31.0564 15.576C31.747 14.4187 32.699 13.5133 33.9124 12.86C35.1257 12.2067 36.4884 11.88 38.0004 11.88C39.531 11.88 40.903 12.2067 42.1164 12.86C43.3297 13.5133 44.2724 14.4187 44.9444 15.576C45.635 16.7333 45.9804 18.0493 45.9804 19.524C45.9804 20.9987 45.635 22.324 44.9444 23.5C44.2724 24.6573 43.3297 25.5627 42.1164 26.216C40.903 26.8693 39.531 27.196 38.0004 27.196ZM38.0004 24.2C39.2884 24.2 40.3524 23.7707 41.1924 22.912C42.0324 22.0533 42.4524 20.924 42.4524 19.524C42.4524 18.124 42.0324 16.9947 41.1924 16.136C40.3524 15.2773 39.2884 14.848 38.0004 14.848C36.7124 14.848 35.6484 15.2773 34.8084 16.136C33.987 16.9947 33.5764 18.124 33.5764 19.524C33.5764 20.924 33.987 22.0533 34.8084 22.912C35.6484 23.7707 36.7124 24.2 38.0004 24.2ZM52.6593 14.232C53.6673 12.664 55.4406 11.88 57.9793 11.88V15.212C57.6806 15.156 57.4099 15.128 57.1673 15.128C55.8046 15.128 54.7406 15.5293 53.9753 16.332C53.2099 17.116 52.8273 18.2547 52.8273 19.748V27H49.3273V12.048H52.6593V14.232ZM75.4952 12.048L68.4952 28.204C67.8419 29.828 67.0486 30.9667 66.1152 31.62C65.1819 32.292 64.0526 32.628 62.7272 32.628C61.9806 32.628 61.2432 32.5067 60.5152 32.264C59.7872 32.0213 59.1899 31.6853 58.7232 31.256L60.1232 28.68C60.4592 28.9973 60.8512 29.2493 61.2992 29.436C61.7659 29.6227 62.2326 29.716 62.6992 29.716C63.3152 29.716 63.8192 29.5573 64.2112 29.24C64.6219 28.9227 64.9952 28.3907 65.3312 27.644L65.5832 27.056L59.0592 12.048H62.6992L67.4032 23.108L72.1352 12.048H75.4952ZM78.0187 7.4H81.6587V23.92H91.9067V27H78.0187V7.4ZM108.364 19.608C108.364 19.8507 108.345 20.196 108.308 20.644H96.5757C96.7811 21.7453 97.3131 22.6227 98.1717 23.276C99.0491 23.9107 100.132 24.228 101.42 24.228C103.062 24.228 104.416 23.6867 105.48 22.604L107.356 24.76C106.684 25.5627 105.834 26.1693 104.808 26.58C103.781 26.9907 102.624 27.196 101.336 27.196C99.6931 27.196 98.2464 26.8693 96.9957 26.216C95.7451 25.5627 94.7744 24.6573 94.0837 23.5C93.4117 22.324 93.0757 20.9987 93.0757 19.524C93.0757 18.068 93.4024 16.7613 94.0557 15.604C94.7277 14.428 95.6517 13.5133 96.8277 12.86C98.0037 12.2067 99.3291 11.88 100.804 11.88C102.26 11.88 103.557 12.2067 104.696 12.86C105.853 13.4947 106.749 14.4 107.384 15.576C108.037 16.7333 108.364 18.0773 108.364 19.608ZM100.804 14.68C99.6837 14.68 98.7317 15.016 97.9477 15.688C97.1824 16.3413 96.7157 17.2187 96.5477 18.32H105.032C104.882 17.2373 104.425 16.36 103.66 15.688C102.894 15.016 101.942 14.68 100.804 14.68ZM117.028 11.88C119.23 11.88 120.91 12.412 122.068 13.476C123.244 14.5213 123.832 16.108 123.832 18.236V27H120.528V25.18C120.098 25.8333 119.482 26.3373 118.68 26.692C117.896 27.028 116.944 27.196 115.824 27.196C114.704 27.196 113.724 27.0093 112.884 26.636C112.044 26.244 111.39 25.712 110.924 25.04C110.476 24.3493 110.252 23.5747 110.252 22.716C110.252 21.372 110.746 20.2987 111.736 19.496C112.744 18.6747 114.321 18.264 116.468 18.264H120.332V18.04C120.332 16.9947 120.014 16.192 119.38 15.632C118.764 15.072 117.84 14.792 116.608 14.792C115.768 14.792 114.937 14.9227 114.116 15.184C113.313 15.4453 112.632 15.8093 112.072 16.276L110.7 13.728C111.484 13.1307 112.426 12.6733 113.528 12.356C114.629 12.0387 115.796 11.88 117.028 11.88ZM116.552 24.648C117.429 24.648 118.204 24.452 118.876 24.06C119.566 23.6493 120.052 23.0707 120.332 22.324V20.588H116.72C114.704 20.588 113.696 21.2507 113.696 22.576C113.696 23.2107 113.948 23.7147 114.452 24.088C114.956 24.4613 115.656 24.648 116.552 24.648ZM131.655 14.232C132.663 12.664 134.437 11.88 136.975 11.88V15.212C136.677 15.156 136.406 15.128 136.163 15.128C134.801 15.128 133.737 15.5293 132.971 16.332C132.206 17.116 131.823 18.2547 131.823 19.748V27H128.323V12.048H131.655V14.232ZM148.428 11.88C150.314 11.88 151.826 12.4307 152.964 13.532C154.103 14.6333 154.672 16.2667 154.672 18.432V27H151.172V18.88C151.172 17.5733 150.864 16.5933 150.248 15.94C149.632 15.268 148.755 14.932 147.616 14.932C146.328 14.932 145.311 15.324 144.564 16.108C143.818 16.8733 143.444 17.984 143.444 19.44V27H139.944V12.048H143.276V13.98C143.855 13.2893 144.583 12.7667 145.46 12.412C146.338 12.0573 147.327 11.88 148.428 11.88Z" fill="#FF9F06"/>
</svg>
