<svg viewBox="0 0 14 14" fill="none" xmlns="http://www.w3.org/2000/svg">
<path d="M7.00001 3.66668C6.8232 3.66668 6.65363 3.73691 6.52861 3.86194C6.40358 3.98696 6.33335 4.15653 6.33335 4.33334V7.00001C6.33335 7.17682 6.40358 7.34639 6.52861 7.47141C6.65363 7.59644 6.8232 7.66668 7.00001 7.66668C7.17682 7.66668 7.34639 7.59644 7.47142 7.47141C7.59644 7.34639 7.66668 7.17682 7.66668 7.00001V4.33334C7.66668 4.15653 7.59644 3.98696 7.47142 3.86194C7.34639 3.73691 7.17682 3.66668 7.00001 3.66668ZM7.61335 9.41334C7.59875 9.37086 7.57858 9.33051 7.55335 9.29334L7.47335 9.19334C7.3796 9.10084 7.26055 9.03817 7.13122 9.01326C7.0019 8.98834 6.86809 9.00229 6.74668 9.05334C6.66589 9.0871 6.59148 9.13446 6.52668 9.19334C6.46489 9.25564 6.41601 9.32951 6.38283 9.41074C6.34966 9.49196 6.33284 9.57894 6.33335 9.66668C6.3344 9.7538 6.35252 9.83986 6.38668 9.92001C6.41662 10.0027 6.46439 10.0779 6.5266 10.1401C6.58882 10.2023 6.66395 10.2501 6.74668 10.28C6.82648 10.3153 6.91277 10.3335 7.00001 10.3335C7.08726 10.3335 7.17355 10.3153 7.25335 10.28C7.33608 10.2501 7.41121 10.2023 7.47342 10.1401C7.53563 10.0779 7.58341 10.0027 7.61335 9.92001C7.64751 9.83986 7.66563 9.7538 7.66668 9.66668C7.66995 9.62229 7.66995 9.57773 7.66668 9.53334C7.6552 9.49083 7.63721 9.45035 7.61335 9.41334ZM7.00001 0.333344C5.68147 0.333344 4.39254 0.724337 3.29621 1.45688C2.19988 2.18942 1.3454 3.23061 0.840816 4.44879C0.336232 5.66696 0.20421 7.00741 0.461445 8.30061C0.718679 9.59382 1.35362 10.7817 2.28597 11.7141C3.21832 12.6464 4.4062 13.2813 5.69941 13.5386C6.99262 13.7958 8.33306 13.6638 9.55124 13.1592C10.7694 12.6546 11.8106 11.8001 12.5431 10.7038C13.2757 9.60748 13.6667 8.31855 13.6667 7.00001C13.6667 6.12453 13.4942 5.25762 13.1592 4.44879C12.8242 3.63995 12.3331 2.90502 11.7141 2.28596C11.095 1.66691 10.3601 1.17584 9.55124 0.840813C8.7424 0.505782 7.87549 0.333344 7.00001 0.333344ZM7.00001 12.3333C5.94518 12.3333 4.91403 12.0205 4.03697 11.4345C3.15991 10.8485 2.47632 10.0155 2.07266 9.04099C1.66899 8.06645 1.56337 6.99409 1.76916 5.95953C1.97495 4.92496 2.4829 3.97465 3.22878 3.22877C3.97466 2.48289 4.92497 1.97494 5.95953 1.76916C6.9941 1.56337 8.06645 1.66899 9.04099 2.07265C10.0155 2.47632 10.8485 3.15991 11.4345 4.03697C12.0206 4.91403 12.3333 5.94518 12.3333 7.00001C12.3333 8.4145 11.7714 9.77105 10.7712 10.7712C9.77106 11.7714 8.4145 12.3333 7.00001 12.3333Z" fill="#FF0058"/>
</svg>
